<?xml version="1.0" encoding="UTF-8"?>
<!-- Generated by Pixelmator Pro 3.5.8 -->
<svg width="16" height="17" viewBox="0 0 16 17" xmlns="http://www.w3.org/2000/svg">
    <g id="Page-1">
        <g id="pin">
            <path id="shadow2" fill="#000000" fill-opacity="0.05" stroke="none" d="M 16 9 C 16 13.418278 12.418278 17 8 17 C 3.581722 17 0 13.418278 0 9 C 0 4.581722 3.581722 1 8 1 C 12.418278 1 16 4.581722 16 9 Z"/>
            <path id="shadow1" fill="#000000" fill-opacity="0.05" stroke="none" d="M 16 8.5 C 16 12.918278 12.418278 16.5 8 16.5 C 3.581722 16.5 0 12.918278 0 8.5 C 0 4.081722 3.581722 0.5 8 0.5 C 12.418278 0.5 16 4.081722 16 8.5 Z"/>
            <path id="markerfill" fill="#0081f2" stroke="none" d="M 16 8 C 16 12.418278 12.418278 16 8 16 C 3.581722 16 0 12.418278 0 8 C 0 3.581722 3.581722 0 8 0 C 12.418278 0 16 3.581722 16 8 Z"/>
            <path id="circle20" fill="#ffffff" stroke="none" d="M 14 8 C 14 11.313708 11.313708 14 8 14 C 4.686292 14 2 11.313708 2 8 C 2 4.686292 4.686292 2 8 2 C 11.313708 2 14 4.686292 14 8 Z"/>
        </g>
    </g>
</svg>
