<svg width="24" height="24" viewBox="0 0 24 24" fill="none" xmlns="http://www.w3.org/2000/svg">
<path fill-rule="evenodd" clip-rule="evenodd" d="M9.91685 4.84416C9.39856 4.88735 8.9999 5.32061 8.9999 5.8407V8.00044H6.9999V5.8407C6.9999 4.28044 8.19589 2.98064 9.75076 2.85106L17.7508 2.1844C19.4998 2.03864 20.9999 3.41891 20.9999 5.17404V18.8268C20.9999 20.582 19.4998 21.9622 17.7508 21.8165L9.75076 21.1498C8.19589 21.0202 6.9999 19.7204 6.9999 18.1602V16.0004H8.9999V18.1602C8.9999 18.6803 9.39856 19.1135 9.91685 19.1567L17.9169 19.8234C18.4999 19.872 18.9999 19.4119 18.9999 18.8268V5.17404C18.9999 4.589 18.4999 4.1289 17.9169 4.17749L9.91685 4.84416ZM-0.000244141 12.0004L0.706862 12.7075L4.20686 16.2075L5.62108 14.7933L3.82818 13.0004H13.414V11.0004H3.82818L5.62108 9.20753L4.20686 7.79331L0.706862 11.2933L-0.000244141 12.0004Z" fill="#3C3C3C"/>
</svg>
