<?xml version="1.0" encoding="UTF-8"?>
<!-- Generated by Pixelmator Pro 3.5.8 -->
<svg width="22" height="21" viewBox="0 0 22 21" xmlns="http://www.w3.org/2000/svg">
    <g id="g1">
        <path id="path1" fill="#000000" stroke="none" opacity="0" d="M 0 -0.7871 L 22.2363 -0.7871 L 22.2363 21 L 0 21 Z"/>
        <path id="path2" fill="#199208" fill-opacity="0.85" stroke="none" d="M 14.3457 20.267601 L 14.3457 1.693371 C 14.3457 0.091806 13.4668 -0.7871 11.875 -0.7871 L 4.00391 -0.7871 C 2.39258 -0.7871 1.54297 0.091806 1.54297 1.693371 L 1.54297 20.267601 Z M 4.32617 9.4082 C 3.61328 9.4082 3.18359 9.017591 3.18359 8.36329 L 3.18359 1.91798 C 3.18359 1.26368 3.61328 0.863291 4.32617 0.863291 L 11.5527 0.863291 C 12.2656 0.863291 12.7051 1.26368 12.7051 1.91798 L 12.7051 8.36329 C 12.7051 9.017591 12.2656 9.4082 11.5527 9.4082 Z M 0 20.1992 C 0 20.6387 0.341797 21 0.771484 21 L 15.0977 21 C 15.5273 21 15.8887 20.6387 15.8887 20.1992 C 15.8887 19.779301 15.5273 19.4277 15.0977 19.4277 L 0.771484 19.4277 C 0.351562 19.4277 0 19.769501 0 20.1992 Z M 17.148399 5.63868 L 18.2617 5.63868 L 18.2617 3.460951 C 18.2617 3.158211 18.007799 2.90431 17.7148 2.90431 C 17.392599 2.90431 17.148399 3.158211 17.148399 3.460951 Z M 20.830099 5.63868 L 20.830099 3.460951 C 20.830099 3.158211 20.585899 2.90431 20.273399 2.90431 C 19.970699 2.90431 19.716801 3.158211 19.716801 3.460951 L 19.716801 5.63868 Z M 13.8965 12.074201 L 14.4434 12.074201 C 14.8926 12.074201 15.1758 12.3281 15.1758 12.816401 L 15.1758 16.0488 C 15.1758 17.4356 16.0156 18.2754 17.4023 18.2754 C 18.779301 18.2754 19.6094 17.4356 19.6094 16.0488 L 19.6094 11 C 19.6094 10.0332 20.332001 9.7598 20.791 9.4082 C 21.494101 8.88087 21.875 8.14845 21.875 7.27931 L 21.875 5.81446 C 21.875 5.58009 21.7383 5.44337 21.523399 5.44337 L 16.318399 5.44337 C 16.1035 5.44337 15.9668 5.58009 15.9668 5.81446 L 15.9668 7.27931 C 15.9668 8.14845 16.3477 8.88087 17.0508 9.4082 C 17.5098 9.7598 18.232401 10.0332 18.232401 11 L 18.232401 16.0488 C 18.232401 16.5762 17.919901 16.898399 17.4023 16.898399 C 16.8652 16.898399 16.5527 16.5762 16.5527 16.0488 L 16.5527 12.816401 C 16.5527 11.468801 15.752 10.6973 14.4434 10.6973 L 13.8965 10.6973 Z"/>
    </g>
</svg>
