<?xml version="1.0" encoding="UTF-8"?>
<svg width="60px" height="60px" viewBox="0 0 60 60" version="1.1" xmlns="http://www.w3.org/2000/svg" xmlns:xlink="http://www.w3.org/1999/xlink">
    <title>poi_photo_7</title>
    <g id="poi_photo_7" stroke="none" stroke-width="1" fill="none" fill-rule="evenodd">
        <g id="Group" transform="translate(7.000000, 7.000000)" stroke="#FFFFFF">
            <path d="M33.8947368,0 L36.3157895,7.2972973 L46,12.1621622 L46,35.2702703 C46,40.4208621 41.4751333,45 36.3157895,45 L9.68421053,45 C4.52486667,45 0,40.4208621 0,35.2702703 L0,12.1621622 L9.68421053,7.2972973 L12.1052632,0 L33.8947368,0 Z M23,12 C15.8318371,12 10,17.8318371 10,25 C10,32.1681629 15.8318371,38 23,38 C30.1681629,38 36,32.1681629 36,25 C36,17.8318371 30.1681629,12 23,12 Z" id="Combined-Shape" stroke-width="5"></path>
            <path d="M22.3846154,33 C18.5887034,33 15,29.4112966 15,24.3846154 C15,20.5887034 18.5887034,17 22.3846154,17 C27.4112966,17 31,20.5887034 31,24.3846154 C31,29.4112966 27.4112966,33 22.3846154,33" id="Fill-4" stroke-width="7"></path>
        </g>
        <g id="Group" transform="translate(7.000000, 7.000000)" fill="#646464">
            <path d="M33.8947368,0 L36.3157895,7.2972973 L46,12.1621622 L46,35.2702703 C46,40.4208621 41.4751333,45 36.3157895,45 L9.68421053,45 C4.52486667,45 0,40.4208621 0,35.2702703 L0,12.1621622 L9.68421053,7.2972973 L12.1052632,0 L33.8947368,0 Z M23,12 C15.8318371,12 10,17.8318371 10,25 C10,32.1681629 15.8318371,38 23,38 C30.1681629,38 36,32.1681629 36,25 C36,17.8318371 30.1681629,12 23,12 Z" id="Combined-Shape"></path>
            <path d="M22.3846154,33 C18.5887034,33 15,29.4112966 15,24.3846154 C15,20.5887034 18.5887034,17 22.3846154,17 C27.4112966,17 31,20.5887034 31,24.3846154 C31,29.4112966 27.4112966,33 22.3846154,33" id="Fill-4"></path>
        </g>
    </g>
</svg>